<?xml version="1.0" encoding="UTF-8"?>
<svg width="36px" height="36px" viewBox="0 0 36 36" version="1.1" xmlns="http://www.w3.org/2000/svg" xmlns:xlink="http://www.w3.org/1999/xlink">
    <!-- Generator: Sketch 41.1 (35376) - http://www.bohemiancoding.com/sketch -->
    <title>console</title>
    <desc>Created with Sketch.</desc>
    <defs></defs>
    <g id="Page-1" stroke="none" stroke-width="1" fill="none" fill-rule="evenodd">
        <g id="console">
            <g id="Group">
                <path d="M0,0 L0,36 L36,36 L36,0 L0,0 Z M34.5,24 C34.5,25.65 33.15,27 31.5,27 L4.5,27 C2.85,27 1.5,25.65 1.5,24 L1.5,12 C1.5,10.35 2.85,9 4.5,9 L31.5,9 C33.15,9 34.5,10.35 34.5,12 L34.5,24 Z" id="Shape"></path>
                <path d="M31.5,9 L4.5,9 C2.85,9 1.5,10.35 1.5,12 L1.5,24 C1.5,25.65 2.85,27 4.5,27 L31.5,27 C33.15,27 34.5,25.65 34.5,24 L34.5,12 C34.5,10.35 33.15,9 31.5,9 Z M16.5,19.5 L12,19.5 L12,24 L9,24 L9,19.5 L4.5,19.5 L4.5,16.5 L9,16.5 L9,12 L12,12 L12,16.5 L16.5,16.5 L16.5,19.5 Z M23.25,22.5 C22.005,22.5 21,21.495 21,20.25 C21,19.005 22.005,18 23.25,18 C24.495,18 25.5,19.005 25.5,20.25 C25.5,21.495 24.495,22.5 23.25,22.5 Z M29.25,18 C28.005,18 27,16.995 27,15.75 C27,14.505 28.005,13.5 29.25,13.5 C30.495,13.5 31.5,14.505 31.5,15.75 C31.5,16.995 30.495,18 29.25,18 Z" id="Shape" fill="#030D4F"></path>
            </g>
        </g>
    </g>
</svg>