<?xml version="1.0" encoding="UTF-8"?>
<svg width="36px" height="36px" viewBox="0 0 36 36" version="1.1" xmlns="http://www.w3.org/2000/svg" xmlns:xlink="http://www.w3.org/1999/xlink">
    <!-- Generator: Sketch 41.1 (35376) - http://www.bohemiancoding.com/sketch -->
    <title>phone</title>
    <desc>Created with Sketch.</desc>
    <defs></defs>
    <g id="Page-1" stroke="none" stroke-width="1" fill="none" fill-rule="evenodd">
        <g id="phone" fill="#030D4F">
            <g id="Group" transform="translate(7.000000, 1.000000)">
                <path d="M16.25,0.5 L4.25,0.5 C2.18,0.5 0.5,2.18 0.5,4.25 L0.5,29.75 C0.5,31.82 2.18,33.5 4.25,33.5 L16.25,33.5 C18.32,33.5 20,31.82 20,29.75 L20,4.25 C20,2.18 18.32,0.5 16.25,0.5 Z M10.25,32 C9.005,32 8,30.995 8,29.75 C8,28.505 9.005,27.5 10.25,27.5 C11.495,27.5 12.5,28.505 12.5,29.75 C12.5,30.995 11.495,32 10.25,32 Z M17,26 L3.5,26 L3.5,5 L17,5 L17,26 Z" id="Shape"></path>
            </g>
        </g>
    </g>
</svg>